<svg width="35" height="35" viewBox="0 0 35 35" fill="none" xmlns="http://www.w3.org/2000/svg">
<path fill-rule="evenodd" clip-rule="evenodd" d="M0.9513 23.992C0.940051 23.9173 0.73485 22.3938 2.05875 21.1906C0.87705 20.8944 0 19.8537 0 18.6156V17.9209C0 16.4997 1.15335 15.3384 2.59875 15.2646V12.6878C2.02905 12.5699 1.51245 12.2706 1.1331 11.8258C0.6345 11.2417 0.432 10.4793 0.57735 9.73354C1.67715 4.09369 6.76575 0 12.6783 0H21.9956C27.7312 0 32.6597 3.78481 33.9804 9.20403L34.0826 9.62126C34.2675 10.381 34.0871 11.1683 33.588 11.7808C33.2267 12.2247 32.7335 12.5288 32.1836 12.6642V15.2637C33.6317 15.3345 34.7886 16.4971 34.7886 17.9205V18.6151C34.7886 19.873 33.8846 20.9272 32.6754 21.2046C33.8409 22.469 33.8427 23.8666 33.8418 23.9339C33.8391 24.1733 33.6384 24.366 33.3918 24.366C32.8865 24.366 32.535 24.435 32.2353 24.5377V27.4906C32.6268 27.6322 32.98 27.8672 33.2573 28.1848C33.7266 28.7227 33.9277 29.43 33.8081 30.1251L33.5331 31.7276C33.2127 33.5949 31.5644 34.9506 29.6141 34.9506H5.17455C3.2247 34.9506 1.57635 33.5949 1.25505 31.7272L0.980101 30.1247C0.86085 29.4296 1.06155 28.7222 1.5309 28.1844C1.83105 27.8401 2.21985 27.5915 2.65095 27.4557V24.5713C2.33055 24.449 1.95705 24.3655 1.39635 24.3655C1.17315 24.3655 0.9837 24.2065 0.9513 23.992ZM28.0179 27.3626H31.2507C31.2782 27.3548 31.3061 27.3486 31.3335 27.3465V24.9466C30.8745 25.1642 30.3161 25.3686 29.3886 25.3686C28.2799 25.3686 27.6972 25.0769 27.1827 24.8193L27.1814 24.8186C26.6967 24.5752 26.2778 24.3655 25.3868 24.3655C24.4967 24.3655 24.0782 24.5752 23.594 24.8182C23.0801 25.0759 22.4973 25.3682 21.3881 25.3682C20.2793 25.3682 19.6965 25.0762 19.1824 24.8185L19.1817 24.8182C18.6975 24.5752 18.2786 24.3655 17.388 24.3655C16.4979 24.3655 16.0794 24.5752 15.5952 24.8182C15.0813 25.0759 14.4981 25.3682 13.3893 25.3682C12.2814 25.3682 11.6992 25.0764 11.1851 24.8188L11.1839 24.8182L11.1832 24.8178C10.6993 24.575 10.2817 24.3655 9.39195 24.3655C8.50185 24.3655 8.0838 24.5752 7.5996 24.8182C7.0857 25.0759 6.50295 25.3682 5.39415 25.3682C4.53375 25.3682 3.9915 25.1921 3.55095 24.9929V27.3626H15.4922C17.2179 27.3626 18.8401 28.0153 20.061 29.2002L21.7548 30.8447L23.4486 29.2002C24.6695 28.0153 26.2922 27.3626 28.0179 27.3626ZM32.6457 31.5834L32.9207 29.9809C32.9963 29.5397 32.8689 29.0905 32.5714 28.7493C32.3244 28.4666 31.9824 28.2915 31.6107 28.2368H28.0179C26.5325 28.2368 25.1356 28.7987 24.0849 29.8184L22.073 31.7717C21.9852 31.8569 21.87 31.8998 21.7548 31.8998C21.6396 31.8998 21.5244 31.8569 21.4367 31.7717L19.4247 29.8184C18.374 28.7987 16.9776 28.2368 15.4922 28.2368H3.17835C2.8071 28.2915 2.46465 28.4666 2.21805 28.7493C1.92015 29.091 1.7928 29.5401 1.8684 29.9814L2.14335 31.5839C2.3913 33.0282 3.66615 34.0768 5.17455 34.0768H29.6141C31.1229 34.0768 32.3978 33.0287 32.6457 31.5834ZM29.3908 24.4949C30.2819 24.4949 30.7004 24.2851 31.185 24.0422C31.6161 23.826 32.0962 23.5852 32.8973 23.5136C32.7965 22.995 32.4828 22.0815 31.5081 21.33C31.4965 21.3212 31.4882 21.3101 31.4798 21.299C31.4745 21.2919 31.4692 21.2849 31.4631 21.2784H3.4317C3.40065 21.3121 3.36735 21.3449 3.3246 21.3684C2.12355 22.0255 1.8792 22.9902 1.8405 23.5088C2.67045 23.5742 3.16163 23.8204 3.60213 24.0413L3.60405 24.0422C4.08825 24.2851 4.5063 24.4949 5.3964 24.4949C6.2865 24.4949 6.70455 24.2851 7.18875 24.0422C7.70265 23.7845 8.28585 23.4922 9.3942 23.4922C10.5016 23.4922 11.0839 23.784 11.5979 24.0416L11.5992 24.0422C12.0834 24.2851 12.5015 24.4949 13.3916 24.4949C14.2817 24.4949 14.7002 24.2851 15.1844 24.0422C15.6983 23.7845 16.281 23.4922 17.3903 23.4922C18.4995 23.4922 19.0822 23.7842 19.5964 24.0419L19.597 24.0422C20.0813 24.2851 20.4998 24.4949 21.3903 24.4949C22.2804 24.4949 22.6989 24.2851 23.1831 24.0422C23.697 23.7845 24.2798 23.4922 25.389 23.4922C26.4982 23.4922 27.0809 23.7839 27.5953 24.0415L27.5967 24.0422C28.0814 24.2851 28.4998 24.4949 29.3908 24.4949ZM3.49875 12.7442V15.2397H6.96555C8.5959 15.2397 10.1282 15.8557 11.2811 16.975L13.0801 18.7217L14.8788 16.975C16.0322 15.8562 17.5644 15.2397 19.1943 15.2397H31.2836V12.7442H3.49875ZM12.6783 0.873349C7.1982 0.873349 2.48085 4.66777 1.4616 9.89563C1.3662 10.3845 1.4994 10.8843 1.82655 11.2675C2.1537 11.6506 2.63475 11.8704 3.1473 11.8704H31.5378C32.0652 11.8704 32.5553 11.6401 32.8829 11.2382C33.2105 10.8367 33.3288 10.3203 33.2069 9.8218L33.1052 9.405C31.8812 4.3816 27.3127 0.873349 21.996 0.873349H12.6783ZM2.74365 16.1305C1.7271 16.1305 0.9 16.9331 0.9 17.92H0.899551V18.6147C0.899551 19.6016 1.72665 20.4042 2.7432 20.4042H32.0454C33.062 20.4042 33.8891 19.6012 33.8891 18.6147V17.92C33.8891 16.9331 33.062 16.1305 32.0454 16.1305C31.9784 16.1305 31.9163 16.1144 31.8591 16.089C31.8547 16.0903 31.8503 16.0915 31.8458 16.0928C31.8097 16.1031 31.7732 16.1135 31.7336 16.1135H19.1947C17.8052 16.1135 16.4988 16.6386 15.5156 17.5928L13.3988 19.6484C13.3146 19.7305 13.2003 19.7764 13.0806 19.7764C12.9609 19.7764 12.8471 19.7305 12.7625 19.6484L10.6452 17.5928C9.6624 16.6391 8.35605 16.1135 6.966 16.1135H3.2031C3.19344 16.1154 3.18403 16.1179 3.17463 16.1205C3.15603 16.1255 3.13748 16.1305 3.11715 16.1305H2.74365ZM22.6701 3.82238C22.7587 3.92199 22.8843 3.97311 23.0098 3.97311C23.1142 3.97311 23.2195 3.93772 23.3046 3.86607C23.4922 3.70791 23.5125 3.4318 23.3496 3.24961L22.8973 2.74369C22.7349 2.5615 22.4505 2.54228 22.2629 2.7C22.0752 2.85815 22.055 3.13427 22.2178 3.31646L22.6701 3.82238ZM14.139 4.07534C14.2276 4.17495 14.3532 4.22606 14.4788 4.22606C14.5832 4.22606 14.6884 4.19068 14.7735 4.11903C14.9611 3.96087 14.9814 3.68475 14.8185 3.50257L14.3662 2.99665C14.2038 2.81403 13.9194 2.7948 13.7318 2.95296C13.5441 3.11111 13.5239 3.38723 13.6868 3.56941L14.139 4.07534ZM16.1869 6.89942C16.1338 6.91951 16.0794 6.92869 16.0258 6.92869C15.8449 6.92869 15.6744 6.82209 15.6055 6.6482C15.5164 6.42277 15.6321 6.17024 15.8643 6.08374L16.5082 5.84388C16.7409 5.75738 17.001 5.8701 17.0896 6.0951C17.1787 6.32053 17.0631 6.57306 16.8309 6.65956L16.1869 6.89942ZM8.09864 4.46592C8.15219 4.46592 8.20664 4.45675 8.25974 4.43665L8.90369 4.19679C9.13589 4.11029 9.25154 3.85776 9.16244 3.63233C9.07379 3.40733 8.81414 3.29417 8.58104 3.38111L7.93709 3.62097C7.70489 3.70747 7.58924 3.96 7.67834 4.18544C7.74719 4.35888 7.91729 4.46592 8.09864 4.46592ZM18.5688 4.31694C18.5157 4.33704 18.4612 4.34621 18.4077 4.34621C18.2268 4.34621 18.0562 4.23917 17.9874 4.06529C17.8983 3.83985 18.0139 3.58733 18.2461 3.50082L18.8905 3.26097C19.1232 3.1749 19.3833 3.28718 19.4719 3.51262C19.561 3.73806 19.4454 3.99058 19.2132 4.07709L18.5688 4.31694ZM26.1738 5.17675C26.2274 5.17675 26.2818 5.16757 26.3349 5.14748L26.9789 4.90762C27.2111 4.82112 27.3267 4.56859 27.2376 4.34316C27.149 4.11816 26.8893 4.005 26.6562 4.09194L26.0123 4.3318C25.7801 4.4183 25.6644 4.67083 25.7535 4.89626C25.8224 5.06971 25.9925 5.17675 26.1738 5.17675ZM11.3773 6.22311L10.6951 6.12568C10.4494 6.09073 10.2793 5.86878 10.3149 5.63024C10.3509 5.3917 10.5732 5.22437 10.8256 5.2615L11.5078 5.35893C11.7535 5.39388 11.9236 5.61626 11.8876 5.8548C11.8548 6.07194 11.6626 6.22791 11.443 6.22791C11.4219 6.22791 11.3998 6.22616 11.3773 6.22311ZM21.1923 6.07718L21.8749 6.17461C21.8974 6.17767 21.9195 6.17941 21.9406 6.17941C22.1602 6.17941 22.3524 6.02344 22.3852 5.80587C22.4212 5.56733 22.2511 5.34539 22.0054 5.31043L21.3228 5.21301C21.0708 5.17674 20.848 5.34276 20.812 5.58174C20.7769 5.82029 20.947 6.04223 21.1923 6.07718Z" fill="#333333"/>
</svg>
