<svg width="36" height="35" viewBox="0 0 36 35" fill="none" xmlns="http://www.w3.org/2000/svg">
<path fill-rule="evenodd" clip-rule="evenodd" d="M16.2787 3.69524C17.3281 3.69524 18.1818 2.86689 18.1818 1.84762C18.1818 0.82835 17.3281 0 16.2787 0C16.0303 0 15.8287 0.195291 15.8287 0.436893C15.8287 0.678495 16.0303 0.873787 16.2787 0.873787C16.8318 0.873787 17.2818 1.31068 17.2818 1.84762C17.2818 2.38456 16.8318 2.82146 16.2787 2.82146C15.2293 2.82146 14.3761 3.64981 14.3761 4.66864C14.3761 5.68748 15.2293 6.51626 16.2787 6.51626C16.5271 6.51626 16.7287 6.32097 16.7287 6.07937C16.7287 5.83777 16.5271 5.64248 16.2787 5.64248C15.7257 5.64248 15.2761 5.20558 15.2761 4.66864C15.2761 4.1317 15.7261 3.69524 16.2787 3.69524ZM36 34.515C36 34.7566 35.7984 34.9519 35.55 34.9519H0.45C0.2016 34.9519 0 34.7566 0 34.515V31.3309C0 31.0893 0.2016 30.894 0.45 30.894H0.7911V30.0159C0.7911 21.112 8.00325 13.8137 17.0536 13.3349C16.0114 12.96 15.2654 11.9879 15.2654 10.8472C15.2654 9.3836 16.4921 8.19219 18 8.19219C19.5079 8.19219 20.7347 9.38316 20.7347 10.8472C20.7347 11.9875 19.9886 12.96 18.9464 13.3349C27.9968 13.8137 35.2089 21.112 35.2089 30.0159V30.894H35.55C35.7984 30.894 36 31.0893 36 31.3309V34.515ZM0.9 31.7678V34.0781H35.1V31.7678H0.9ZM18 9.06597C16.9884 9.06597 16.1653 9.86505 16.1653 10.8472C16.1653 11.8293 16.9884 12.6284 18 12.6284C19.0116 12.6284 19.8347 11.8293 19.8347 10.8472C19.8347 9.86505 19.0116 9.06597 18 9.06597ZM18 14.1824C9.0072 14.1824 1.6911 21.2854 1.6911 30.0159V30.894H34.3089V30.0159C34.3089 21.2854 26.9928 14.1824 18 14.1824ZM4.06215 27.0044C5.0175 21.9058 8.9649 17.7296 14.1187 16.3656C14.359 16.3 14.6061 16.439 14.6713 16.6723C14.7366 16.9051 14.5953 17.145 14.3554 17.2088C9.53415 18.485 5.84145 22.3912 4.94775 27.1608C4.90815 27.3718 4.7187 27.5195 4.50539 27.5195C4.47884 27.5195 4.45185 27.5173 4.4244 27.512C4.18005 27.4688 4.0176 27.2416 4.06215 27.0044ZM22.4132 1.84762C22.4132 2.86689 21.5595 3.69524 20.5101 3.69524C19.9571 3.69524 19.5075 4.1317 19.5075 4.66864C19.5075 5.20558 19.9571 5.64248 20.5101 5.64248C20.7585 5.64248 20.9601 5.83777 20.9601 6.07937C20.9601 6.32097 20.7585 6.51626 20.5101 6.51626C19.4607 6.51626 18.6075 5.68748 18.6075 4.66864C18.6075 3.64981 19.4607 2.82146 20.5101 2.82146C21.0632 2.82146 21.5132 2.38456 21.5132 1.84762C21.5132 1.31068 21.0632 0.873787 20.5101 0.873787C20.2617 0.873787 20.0601 0.678495 20.0601 0.436893C20.0601 0.195291 20.2617 0 20.5101 0C21.5595 0 22.4132 0.82835 22.4132 1.84762Z" fill="#333333"/>
</svg>
