<svg width="30" height="36" viewBox="0 0 30 36" fill="none" xmlns="http://www.w3.org/2000/svg">
<path d="M20.625 14.5C21.5078 14.5 22.3359 14.668 23.1094 15.0039C23.8828 15.3398 24.5586 15.7969 25.1367 16.375C25.7148 16.9453 26.168 17.6211 26.4961 18.4023C26.832 19.1758 27 20 27 20.875C27 21.7266 26.8359 22.543 26.5078 23.3242C26.1875 24.1055 25.7305 24.793 25.1367 25.3867L15 35.5117L4.86328 25.3867C4.26953 24.793 3.80859 24.1055 3.48047 23.3242C3.16016 22.543 3 21.7266 3 20.875C3 20 3.16406 19.1758 3.49219 18.4023C3.82812 17.6211 4.28516 16.9453 4.86328 16.375C5.44141 15.7969 6.11719 15.3398 6.89062 15.0039C7.66406 14.668 8.49219 14.5 9.375 14.5C10.0234 14.5 10.6016 14.5742 11.1094 14.7227C11.6172 14.8711 12.0859 15.0781 12.5156 15.3438C12.9531 15.6016 13.3672 15.9141 13.7578 16.2812C14.1562 16.6484 14.5703 17.0508 15 17.4883C15.4297 17.0508 15.8398 16.6484 16.2305 16.2812C16.6289 15.9141 17.043 15.6016 17.4727 15.3438C17.9102 15.0781 18.3828 14.8711 18.8906 14.7227C19.3984 14.5742 19.9766 14.5 20.625 14.5ZM24.0703 24.3203C24.5312 23.8594 24.8828 23.332 25.125 22.7383C25.3672 22.1445 25.4883 21.5234 25.4883 20.875C25.4883 20.1953 25.3633 19.5625 25.1133 18.9766C24.8633 18.3828 24.5156 17.8711 24.0703 17.4414C23.6328 17.0039 23.1172 16.6641 22.5234 16.4219C21.9375 16.1719 21.3047 16.0469 20.625 16.0469C19.9688 16.0469 19.3867 16.1523 18.8789 16.3633C18.3711 16.5664 17.9023 16.8359 17.4727 17.1719C17.043 17.5078 16.6289 17.8906 16.2305 18.3203C15.8398 18.7422 15.4297 19.1719 15 19.6094C14.5781 19.1875 14.168 18.7617 13.7695 18.332C13.3711 17.9023 12.9531 17.5156 12.5156 17.1719C12.0859 16.8281 11.6133 16.5469 11.0977 16.3281C10.5898 16.1094 10.0156 16 9.375 16C8.70312 16 8.07031 16.1289 7.47656 16.3867C6.88281 16.6367 6.36328 16.9844 5.91797 17.4297C5.48047 17.8672 5.13281 18.3828 4.875 18.9766C4.625 19.5703 4.5 20.2031 4.5 20.875C4.5 21.5234 4.62109 22.1445 4.86328 22.7383C5.11328 23.332 5.46875 23.8594 5.92969 24.3203L15 33.3906L24.0703 24.3203Z" fill="#333333"/>
</svg>
