<svg width="30" height="35" viewBox="0 0 30 35" fill="none" xmlns="http://www.w3.org/2000/svg">
<path fill-rule="evenodd" clip-rule="evenodd" d="M27.994 17.7133C28.7167 17.3856 29.1276 16.6259 28.9935 15.8657C28.6519 13.9311 27.3235 10.0161 22.2601 5.5279C17.208 1.04887 13.1094 0.1445 11.1159 0.00425766C10.3158 -0.0503543 9.57688 0.424985 9.31543 1.16639L8.10988 4.63314V4.63358L0.0899842 27.359C-0.122866 27.9624 0.0481338 28.602 0.536834 29.028C0.562328 29.0504 0.589868 29.069 0.617385 29.0876L0.617426 29.0876L0.617484 29.0876L0.640868 29.1035L0.656985 29.1149V31.8953C0.656985 32.1369 0.858584 32.3322 1.10698 32.3322C1.35538 32.3322 1.55698 32.1369 1.55698 31.8953V29.4273C1.56461 29.4275 1.57223 29.4285 1.57986 29.4294C1.58843 29.4305 1.59701 29.4316 1.60558 29.4316C1.83688 29.4316 2.07088 29.3823 2.29408 29.2809L3.13018 28.9017V31.5833C3.13018 31.8249 3.33178 32.0202 3.58018 32.0202C3.82858 32.0202 4.03018 31.8249 4.03018 31.5833V28.7776C4.03018 28.685 3.99373 28.6042 3.94333 28.5334L14.4625 23.7638V27.882C14.4625 28.1236 14.6641 28.3189 14.9125 28.3189C15.1609 28.3189 15.3625 28.1236 15.3625 27.882V23.3558L19.3779 21.5352V29.1533C19.3779 29.3949 19.5795 29.5902 19.8279 29.5902C20.0763 29.5902 20.2779 29.3949 20.2779 29.1533V21.1709L20.2777 21.1671L20.2774 21.164L20.2767 21.1603C20.2759 21.1564 20.2748 21.1527 20.2737 21.1489C20.2721 21.1432 20.2704 21.1376 20.2698 21.1315L23.1808 19.8117V26.5809C23.1808 26.8225 23.3824 27.0178 23.6308 27.0178C23.8792 27.0178 24.0808 26.8225 24.0808 26.5809V19.4338C24.0808 19.4308 24.0804 19.4281 24.0798 19.4254C24.0792 19.4229 24.0785 19.4206 24.0778 19.4182C24.0766 19.4142 24.0754 19.4101 24.075 19.4058L24.5394 19.1952L27.994 17.7133ZM10.1668 1.44775C10.2955 1.08295 10.6573 0.850957 11.0502 0.874986C12.9276 1.0078 16.8016 1.87154 21.6531 6.17232C26.518 10.4849 27.7843 14.1889 28.1061 16.0125C28.1718 16.3856 27.9693 16.7596 27.6214 16.9168L25.4704 17.8396C25.4749 17.7321 25.4722 17.6237 25.4533 17.5149C25.1527 15.8137 23.985 12.3714 19.5385 8.42931C15.1011 4.49596 11.497 3.70125 9.74338 3.57761C9.63448 3.56887 9.52783 3.57499 9.42253 3.58766L10.1668 1.44775ZM1.91293 28.4897C1.64653 28.6107 1.35673 28.5697 1.13803 28.3779C0.919334 28.1869 0.845984 27.9126 0.940935 27.6421L8.96129 4.9145C9.06029 4.63402 9.32983 4.4479 9.62818 4.4479C9.6448 4.4479 9.66143 4.44877 9.67805 4.44964L9.67813 4.44965C11.3152 4.56542 14.6943 5.31994 18.931 9.07547C23.179 12.8415 24.2847 16.0728 24.5655 17.6635C24.619 17.9663 24.4543 18.2699 24.165 18.401L14.7591 22.6655C14.7412 22.672 14.7255 22.6798 14.7089 22.6881L14.7087 22.6882L1.91293 28.4897ZM12.1522 13.4431C12.9136 13.4099 13.6156 13.0901 14.1295 12.5435C15.1897 11.4159 15.1074 9.66047 13.9464 8.63115C12.7849 7.6014 10.9768 7.68222 9.91618 8.80853V8.80897C8.85598 9.93659 8.93833 11.692 10.0993 12.7213C10.6294 13.191 11.3071 13.4457 12.0199 13.4457C12.0636 13.4462 12.1081 13.4453 12.1522 13.4431ZM10.5808 9.39834C11.3067 8.62722 12.5442 8.57261 13.3393 9.27688C14.1345 9.98159 14.1907 11.183 13.4649 11.9555C13.113 12.329 12.6324 12.5475 12.1117 12.5706C11.5875 12.5929 11.0916 12.4181 10.7064 12.0769C9.91123 11.3718 9.85498 10.1703 10.5808 9.39834ZM6.41968 16.3345C6.76303 15.9692 7.23238 15.7556 7.74088 15.7333C8.25029 15.711 8.73674 15.8818 9.11338 16.2152C9.48914 16.5485 9.70919 17.0042 9.73213 17.4979C9.75509 17.992 9.57869 18.4647 9.23534 18.83C8.89198 19.1948 8.42264 19.4084 7.91413 19.4307C7.88443 19.432 7.85473 19.4329 7.82549 19.4329C7.34893 19.4329 6.89623 19.2629 6.54208 18.9488C6.16633 18.6155 5.94628 18.1598 5.92333 17.6661C5.90038 17.172 6.07633 16.6993 6.41968 16.3345ZM7.87318 18.5578C8.14139 18.546 8.38933 18.4328 8.57024 18.2406C8.75158 18.0479 8.84473 17.798 8.83213 17.5377C8.81999 17.2768 8.70389 17.0365 8.50544 16.8605C8.31869 16.6949 8.07974 16.6049 7.82818 16.6049C7.81243 16.6049 7.79714 16.6053 7.78139 16.6062C7.51318 16.618 7.26523 16.7312 7.08433 16.9234V16.9238C6.90343 17.1161 6.81028 17.3655 6.82243 17.6263C6.83458 17.8872 6.95068 18.1275 7.14914 18.3035C7.34759 18.4792 7.60228 18.5735 7.87318 18.5578ZM18.5499 15.8779C18.5854 15.8779 18.621 15.8775 18.6565 15.8757C19.2703 15.8486 19.8364 15.5913 20.2504 15.1509C20.6644 14.7105 20.8777 14.1399 20.8498 13.544C20.8219 12.9481 20.5569 12.3985 20.1033 11.9965C19.1668 11.1664 17.7097 11.2307 16.8547 12.1394V12.1398C16.4407 12.5802 16.2274 13.1504 16.2553 13.7467C16.2832 14.3422 16.5483 14.8918 17.0019 15.2938C17.4289 15.6726 17.9752 15.8779 18.5499 15.8779ZM17.5189 12.7292C18.0396 12.1748 18.9265 12.1372 19.4962 12.6418C19.7725 12.8869 19.9336 13.2212 19.9507 13.5838C19.9678 13.9464 19.8382 14.2933 19.5858 14.5615C19.3338 14.8294 18.9895 14.9862 18.616 15.0028C18.2425 15.0172 17.8848 14.8931 17.6089 14.6485C17.3326 14.4034 17.1715 14.0696 17.1544 13.707C17.1373 13.3444 17.2665 12.997 17.5189 12.7292ZM4.77988 24.9369C3.92938 24.1824 3.86953 22.8975 4.64623 22.0713C5.42248 21.2456 6.74593 21.187 7.59688 21.9415C8.44693 22.6956 8.50723 23.9805 7.73098 24.8062C7.31923 25.244 6.75403 25.466 6.18703 25.466C5.68438 25.466 5.17993 25.2916 4.77988 24.9369ZM5.38693 24.2916C5.87113 24.7197 6.62443 24.687 7.06633 24.2169C7.50823 23.7468 7.47403 23.0159 6.99028 22.5868C6.50608 22.1578 5.75323 22.191 5.31088 22.6611C4.86898 23.1308 4.90273 23.8626 5.38693 24.2916ZM16.5744 20.2062C17.6562 19.0554 17.572 17.265 16.3872 16.2143C15.813 15.7049 15.0655 15.4406 14.2929 15.4781C13.5162 15.5122 12.7998 15.8381 12.276 16.3961C11.1942 17.5464 11.2779 19.3368 12.4627 20.3875C13.0198 20.8816 13.7227 21.125 14.4238 21.125C15.2136 21.125 16.0011 20.8157 16.5744 20.2062ZM12.9406 16.985C13.3029 16.6001 13.7974 16.3751 14.3343 16.3515C14.3653 16.3497 14.3968 16.3493 14.4279 16.3493C14.9305 16.3493 15.4075 16.5284 15.781 16.8596C16.5996 17.5853 16.6576 18.8221 15.9102 19.6173C15.1623 20.4111 13.8888 20.4675 13.0698 19.7427C12.2512 19.0165 12.1932 17.7797 12.9406 16.985ZM20.2783 32.0526C20.2783 32.2942 20.0767 32.4895 19.8283 32.4895C19.5799 32.4895 19.3783 32.2942 19.3783 32.0526V30.6021C19.3783 30.3605 19.5799 30.1652 19.8283 30.1652C20.0767 30.1652 20.2783 30.3605 20.2783 30.6021V32.0526ZM3.58018 32.6266C3.33178 32.6266 3.13018 32.8219 3.13018 33.0635V34.514C3.13018 34.7556 3.33178 34.9509 3.58018 34.9509C3.82858 34.9509 4.03018 34.7556 4.03018 34.514V33.0635C4.03018 32.8219 3.82858 32.6266 3.58018 32.6266ZM15.3625 29.4557V30.9061C15.3625 31.1478 15.1609 31.343 14.9125 31.343C14.6641 31.343 14.4625 31.1478 14.4625 30.9061V29.4557C14.4625 29.2141 14.6641 29.0188 14.9125 29.0188C15.1609 29.0188 15.3625 29.2141 15.3625 29.4557Z" fill="#333333"/>
</svg>
